<svg viewBox="0 0 1058 279" xmlns="http://www.w3.org/2000/svg" xmlns:ev="http://www.w3.org/2001/xml-events" width="1058" height="279" xmlns:xlink="http://www.w3.org/1999/xlink"><defs/><g id="page1" transform="translate(5.5,5.5)"><rect fill="none" x="0" width="1048" y="0" height="269"/><path fill="#ffce31" id="shape1" transform="translate(38.419343,38.417394)" d="M96.0,.0L123.2,68.2L190.2,72.1L135.1,119.9L162.0,192.9L96.0,151.8L30.0,192.9L56.9,119.9L.0,72.1L68.8,68.2L96.0,.0z" fill-rule="nonzero"/><path fill="#ffce31" id="shape2" transform="translate(233.794343,38.417394)" d="M96.0,.0L123.2,68.2L190.2,72.1L135.1,119.9L162.0,192.9L96.0,151.8L30.0,192.9L56.9,119.9L.0,72.1L68.8,68.2L96.0,.0z" fill-rule="nonzero"/><path fill="#d7d7d7" id="shape3" transform="translate(429.169343,38.417394)" d="M96.0,.0L123.2,68.2L190.2,72.1L135.1,119.9L162.0,192.9L96.0,151.8L30.0,192.9L56.9,119.9L.0,72.1L68.8,68.2L96.0,.0z" fill-rule="nonzero"/><path fill="#d7d7d7" id="shape4" transform="translate(624.544343,38.417394)" d="M96.0,.0L123.2,68.2L190.2,72.1L135.1,119.9L162.0,192.9L96.0,151.8L30.0,192.9L56.9,119.9L.0,72.1L68.8,68.2L96.0,.0z" fill-rule="nonzero"/><path fill="#d7d7d7" id="shape5" transform="translate(819.919343,38.417394)" d="M96.0,.0L123.2,68.2L190.2,72.1L135.1,119.9L162.0,192.9L96.0,151.8L30.0,192.9L56.9,119.9L.0,72.1L68.8,68.2L96.0,.0z" fill-rule="nonzero"/></g></svg>