<svg width="122" height="24" viewBox="0 0 122 24" fill="none" xmlns="http://www.w3.org/2000/svg">
<g clip-path="url(#clip0_2345_2)">
<mask id="mask0_2345_2" style="mask-type:luminance" maskUnits="userSpaceOnUse" x="0" y="0" width="24" height="24">
<path d="M23.1379 0H0V23.1379H23.1379V0Z" fill="white"/>
</mask>
<g mask="url(#mask0_2345_2)">
<path d="M11.9424 8.17969H4.92047L0 15.6556L4.92047 23.1388H11.9424L7.1464 15.6556L11.9424 8.17969Z" fill="#A375FF"/>
<path d="M20.2193 0L9.91699 15.6547H17.0634L23.1407 6.28239L20.2193 0Z" fill="#A375FF"/>
</g>
<path d="M33.6553 21.8122V3.66992H40.38C43.2344 3.66992 45.4114 4.46818 46.9112 6.0647C48.4271 7.66122 49.185 9.88666 49.185 12.741C49.185 15.5954 48.4271 17.8209 46.9112 19.4174C45.4114 21.0139 43.2344 21.8122 40.38 21.8122H33.6553ZM36.9693 18.8126H40.38C42.1056 18.8126 43.4279 18.3047 44.3471 17.2887C45.2663 16.2566 45.7259 14.7407 45.7259 12.741C45.7259 10.7414 45.2663 9.22548 44.3471 8.19339C43.4279 7.16129 42.1056 6.64525 40.38 6.64525H36.9693V18.8126Z" fill="white"/>
<path d="M51.6709 10.6844H54.6946V21.8117H51.6709V10.6844ZM54.6946 6.35449V9.3782H51.6709V6.35449H54.6946Z" fill="white"/>
<path d="M59.1 10.6846L61.3254 15.8128C61.5996 16.4256 61.7769 16.9578 61.8576 17.4093C61.9382 17.8608 61.9785 18.3043 61.9785 18.7397V19.1268H62.7526V18.7397C62.7526 18.3043 62.7929 17.8608 62.8735 17.4093C62.9542 16.9416 63.1235 16.4094 63.3815 15.8128L65.607 10.6846H68.7274L63.9137 21.8118H60.7932L55.9795 10.6846H59.1Z" fill="white"/>
<path d="M73.3822 3.18555V9.66838C73.3822 10.3779 73.3338 10.9504 73.237 11.3858C73.1403 11.8052 73.0112 12.2002 72.85 12.5711L73.5999 12.7647C73.9546 11.9906 74.5029 11.41 75.2448 11.023C75.9866 10.636 76.8493 10.4424 77.8331 10.4424C78.4942 10.4424 79.1231 10.5553 79.7199 10.7811C80.3165 11.0069 80.8406 11.3617 81.2922 11.8454C81.7437 12.3292 82.1066 12.9582 82.3807 13.7322C82.6548 14.4902 82.792 15.4094 82.792 16.4899V21.8116H79.6715V16.4899C79.6715 15.8286 79.5908 15.2804 79.4296 14.845C79.2683 14.3935 79.0506 14.0306 78.7765 13.7564C78.5023 13.4822 78.1717 13.2887 77.7847 13.1759C77.3977 13.063 76.9783 13.0065 76.5268 13.0065C75.6882 13.0065 75.0029 13.1517 74.4707 13.442C73.9386 13.7322 73.5757 14.0064 73.3822 14.2644V21.8116H70.2617V3.18555H73.3822Z" fill="white"/>
<path d="M87.6644 10.6846V16.0063C87.6644 16.6675 87.737 17.2239 87.8821 17.6754C88.0433 18.1108 88.253 18.4655 88.511 18.7397C88.7851 19.0139 89.0996 19.2074 89.4544 19.3203C89.8092 19.4331 90.1801 19.4896 90.5672 19.4896C91.2929 19.4896 91.9056 19.3445 92.4056 19.0542C92.9216 18.7639 93.2764 18.4897 93.4699 18.2317V10.6846H96.5904V21.8118H93.4699C93.4699 21.5215 93.5183 21.2313 93.6151 20.941C93.7118 20.6346 93.8408 20.296 94.0021 19.925L93.2522 19.7315C92.8974 20.5056 92.3572 21.0861 91.6315 21.4732C90.9219 21.8602 90.1318 22.0537 89.2609 22.0537C88.6642 22.0537 88.0836 21.9409 87.5193 21.7151C86.9548 21.4892 86.4468 21.1426 85.9953 20.6749C85.5599 20.1911 85.2051 19.5783 84.931 18.8365C84.6729 18.0785 84.5439 17.1674 84.5439 16.1031V10.6846H87.6644Z" fill="white"/>
<path d="M98.9639 10.6853H102.084C102.084 10.9755 102.036 11.2739 101.939 11.5803C101.842 11.8705 101.713 12.2011 101.552 12.572L102.302 12.7656C102.657 11.9915 103.181 11.4109 103.874 11.0239C104.584 10.6369 105.318 10.4434 106.075 10.4434C106.656 10.4434 107.229 10.5562 107.793 10.782C108.357 11.0078 108.857 11.3626 109.292 11.8464C109.745 12.3302 110.099 12.9591 110.357 13.7332C110.631 14.4911 110.768 15.4103 110.768 16.4908V21.8125H107.648V16.4908C107.648 15.8296 107.568 15.2813 107.406 14.8459C107.261 14.3944 107.051 14.0315 106.777 13.7573C106.519 13.4832 106.213 13.2896 105.858 13.1768C105.519 13.0639 105.156 13.0075 104.769 13.0075C104.157 13.0075 103.6 13.1526 103.1 13.4429C102.617 13.7332 102.278 14.0073 102.084 14.2653V21.8125H98.9639V10.6853Z" fill="white"/>
<path d="M112.732 13.2726V10.6843H114.982V5.60449H118.078V7.73318C118.078 8.41049 117.998 8.9346 117.836 9.30551C117.691 9.67641 117.409 9.97475 116.99 10.2005L117.208 10.9504C117.498 10.8376 117.796 10.765 118.103 10.7327C118.425 10.7004 118.772 10.6843 119.143 10.6843H121.029V13.2726H118.078V18.0138C118.078 18.5299 118.135 18.8604 118.248 19.0056C118.377 19.1507 118.652 19.2233 119.07 19.2233H120.062V21.8116H119.07C118.377 21.8116 117.772 21.7713 117.256 21.6906C116.756 21.5939 116.337 21.4245 115.998 21.1826C115.659 20.9246 115.402 20.5779 115.224 20.1425C115.063 19.7071 114.982 19.1507 114.982 18.4734V13.2726H112.732Z" fill="white"/>
</g>
<defs>
<clipPath id="clip0_2345_2">
<rect width="122" height="23.1379" fill="white"/>
</clipPath>
</defs>
</svg>
